<?xml version="1.0" encoding="UTF-8" standalone="no"?>
<!DOCTYPE svg PUBLIC "-//W3C//DTD SVG 1.1//EN" "http://www.w3.org/Graphics/SVG/1.1/DTD/svg11.dtd">
<svg width="100%" height="100%" viewBox="0 0 428 149" version="1.1" xmlns="http://www.w3.org/2000/svg" xmlns:xlink="http://www.w3.org/1999/xlink" xml:space="preserve" style="fill-rule:evenodd;clip-rule:evenodd;stroke-linejoin:round;stroke-miterlimit:1.41421;">
    <g transform="matrix(1,0,0,1,-566.202,-284)">
        <g id="Artboard1" transform="matrix(0.862509,0,0,0.610434,77.8479,110.637)">
            <rect x="566.202" y="284" width="495.912" height="243.524" style="fill:none;"/>
            <g transform="matrix(1.15941,0,0,1.63818,450.846,-1221.98)">
                <g>
                    <g>
                        <path d="M130.727,936.808L192.112,936.808L192.112,1000.76C192.112,1017.85 189.174,1030.43 183.297,1038.5C177.421,1046.57 167.911,1050.6 154.768,1050.6C141.626,1050.6 132.116,1046.57 126.24,1038.5C120.363,1030.43 117.425,1017.85 117.425,1000.76L117.425,936.808L122.233,936.808L122.233,1000.76C122.233,1009.63 122.981,1017.08 124.477,1023.12C125.973,1029.15 128.216,1033.77 131.208,1036.98C134.2,1040.18 137.566,1042.45 141.305,1043.79C145.045,1045.13 149.533,1045.8 154.768,1045.8C160.004,1045.8 164.492,1045.13 168.232,1043.79C171.971,1042.45 175.337,1040.18 178.329,1036.98C181.321,1033.77 183.564,1029.15 185.06,1023.12C186.556,1017.08 187.304,1009.63 187.304,1000.76L187.304,941.616L130.727,941.616L130.727,936.808Z" style="fill-rule:nonzero;"/>
                        <rect x="219.199" y="1039.7" width="10.578" height="9.296" style="fill-rule:nonzero;"/>
                        <path d="M283.949,1049L258.305,1049L258.305,936.808L277.859,936.808C291.963,936.808 302.595,939.399 309.753,944.582C316.912,949.764 320.492,957.056 320.492,966.459C320.492,977.144 316.004,984.997 307.029,990.019C320.064,994.934 326.582,1004.18 326.582,1017.75C326.582,1027.36 323.056,1034.98 316.004,1040.59C308.952,1046.19 298.267,1049 283.949,1049ZM283.949,1044.19C288.971,1044.19 293.566,1043.79 297.733,1042.99C301.9,1042.19 305.88,1040.85 309.673,1038.98C313.466,1037.11 316.432,1034.36 318.568,1030.73C320.705,1027.1 321.774,1022.77 321.774,1017.75C321.774,1006.31 316.271,998.567 305.266,994.507L295.649,990.981L304.625,985.852C311.997,981.792 315.684,975.327 315.684,966.459C315.684,949.897 303.075,941.616 277.859,941.616L263.114,941.616L263.114,1044.19L283.949,1044.19Z" style="fill-rule:nonzero;"/>
                        <path d="M353.989,1044.19L412.97,1044.19L378.992,950.752L343.251,1049L338.122,1049L378.992,936.648L419.862,1049L353.989,1049L353.989,1044.19Z" style="fill-rule:nonzero;"/>
                        <path d="M496.152,990.34L448.551,990.34L497.595,941.616L443.422,941.616L443.422,1044.19L505.608,1044.19L505.608,1049L438.614,1049L438.614,936.808L509.295,936.808L460.251,985.532L496.152,985.532L496.152,990.34Z" style="fill-rule:nonzero;"/>
                    </g>
                </g>
            </g>
        </g>
    </g>
</svg>
